<svg xmlns="http://www.w3.org/2000/svg" width="24" height="24" fill="none"><defs><filter id="a" width="20.4" height="20.4" x="1.8" y="1.8" color-interpolation-filters="sRGB" filterUnits="userSpaceOnUse"><feFlood flood-opacity="0" result="BackgroundImageFix"/><feBlend in="SourceGraphic" in2="BackgroundImageFix" result="shape"/><feGaussianBlur result="effect_layerBlur_1" stdDeviation=".067"/></filter></defs><path d="M0 0h24v24H0z"/><circle cx="12" cy="12" r="12" fill="#FFF"/><circle cx="12" cy="12" r="11.5" stroke="#F3848C"/><g filter="url('#a')"><circle cx="12" cy="12" r="10" fill="#FFF"/></g><circle cx="12" cy="12" r="9.75" stroke="#F3848C" stroke-dasharray="2 2" stroke-width=".5"/><path fill="#000" d="M7 8.215c0 1.06.774 1.94 1.786 2.11v3.247a.357.357 0 0 0 .357.357h5.715a.357.357 0 0 0 .357-.357v-3.247A2.144 2.144 0 0 0 17 8.215a2.145 2.145 0 0 0-2.143-2.143h-.808A2.497 2.497 0 0 0 12 5c-.847 0-1.597.425-2.049 1.072h-.808A2.145 2.145 0 0 0 7 8.215Zm2.5 4.643h5v.357h-5v-.357Zm-.357-6.072h.462c-.07.232-.105.472-.105.714a.357.357 0 1 0 .714 0c0-.985.801-1.786 1.786-1.786s1.786.801 1.786 1.786a.357.357 0 1 0 .714 0c0-.248-.037-.487-.105-.714h.462a1.43 1.43 0 0 1 1.01 2.437 1.425 1.425 0 0 1-1.007.42h-.002a.352.352 0 0 0-.253.105.353.353 0 0 0-.105.252v2.144h-5V10a.357.357 0 0 0-.357-.357H9.14a1.43 1.43 0 0 1-1.426-1.428c0-.788.641-1.43 1.43-1.43Zm6.785 8.572H8.072a.357.357 0 1 0 0 .714h7.856a.356.356 0 0 0 .252-.61.357.357 0 0 0-.252-.104Zm0 1.071H8.072a.357.357 0 1 0 0 .715h7.856a.357.357 0 1 0 0-.715Zm-1.786 1.081H9.858a.358.358 0 0 0 0 .715h4.284a.358.358 0 0 0 0-.715Z"/></svg>