<svg aria-hidden="true" style="width:0;height:0;position:absolute;overflow:hidden" xmlns="http://www.w3.org/2000/svg"><defs><symbol id="call" viewBox="0 0 32 32"><path d="M29.43 20.473h-.034a18.56 18.56 0 0 1-5.804-.924l.131.037c-.894-.295-1.991-.025-2.535.522l-3.599 2.649c-4.172-2.171-6.742-4.677-8.938-8.714l2.634-3.414a2.48 2.48 0 0 0 .638-2.555c-.577-1.654-.911-3.56-.911-5.544v-.028.001C11.01 1.125 9.855 0 8.442 0H2.566C1.151 0-.001 1.122-.001 2.503c0 15.818 13.201 28.689 29.43 28.689 1.415 0 2.567-1.125 2.567-2.503v-5.711c0-1.381-1.152-2.506-2.567-2.506z"/></symbol><symbol id="close" viewBox="0 0 32 32"><path d="M23.884 6.706 16 14.59 8.116 6.706a.996.996 0 0 0-1.672.736c0 .26.099.497.262.674l-.001-.001 7.88 7.884-7.882 7.882a.998.998 0 0 0 1.41 1.412l7.886-7.882 7.884 7.884a.996.996 0 0 0 1.672-.736.992.992 0 0 0-.262-.674l.001.001-7.884-7.884 7.884-7.886a.998.998 0 0 0-1.41-1.412v.002z"/></symbol><symbol id="facebook" viewBox="0 0 32 32"><path d="M22.512.006 18.896 0c-4.064 0-6.69 3.092-6.69 7.876v3.63H8.568c-.314 0-.568.294-.568.654v5.26c0 .36.254.652.568.652h3.638v13.276c0 .36.254.652.568.652h4.746c.314 0 .568-.292.568-.652V18.072h4.252c.314 0 .568-.292.568-.652l.002-5.26c0-.174-.06-.34-.166-.462a.535.535 0 0 0-.402-.192h-4.254V8.428c0-1.48.308-2.23 1.986-2.23h2.438c.314 0 .568-.294.568-.654V.66c0-.36-.254-.652-.568-.654z"/></symbol><symbol id="instagram" viewBox="0 0 32 32"><path d="M16.316 32h-.32l-.461.001c-2.329 0-4.64-.072-6.933-.212l.314.015c-2.066-.126-3.952-.84-5.454-2.064-1.45-1.182-2.44-2.78-2.942-4.75-.44-1.716-.46-3.4-.484-5.026C.02 18.794.004 17.41 0 16.004c.004-1.414.02-2.8.036-3.968.022-1.628.046-3.31.484-5.026.5-1.97 1.492-3.568 2.94-4.75C4.966 1.036 6.852.32 8.92.196c2.252-.138 4.57-.2 7.084-.196l.443-.001c2.335 0 4.653.071 6.952.212l-.316-.015c2.066.124 3.952.84 5.454 2.064 1.45 1.182 2.44 2.78 2.944 4.75.436 1.716.46 3.4.48 5.026.018 1.17.034 2.554.038 3.96v.006c-.004 1.408-.02 2.792-.036 3.96-.022 1.63-.046 3.312-.482 5.028-.504 1.97-1.494 3.568-2.944 4.75-1.502 1.224-3.388 1.94-5.454 2.064-1.968.125-4.268.196-6.585.196h-.193.01zm-.32-2.5.48.001c2.271 0 4.526-.069 6.763-.206l-.307.015c1.56-.096 2.916-.602 4.026-1.508 1.026-.836 1.734-1.99 2.1-3.43.364-1.428.386-2.96.406-4.444.016-1.16.032-2.534.036-3.928-.004-1.394-.02-2.768-.036-3.93-.02-1.48-.04-3.014-.406-4.44-.368-1.44-1.074-2.596-2.1-3.432-1.11-.906-2.464-1.412-4.026-1.508-1.93-.122-4.186-.191-6.457-.191l-.5.001h.026l-.485-.001c-2.269 0-4.522.069-6.756.206l.307-.015c-1.56.096-2.916.602-4.026 1.508-1.026.836-1.734 1.99-2.1 3.43-.364 1.428-.386 2.96-.406 4.442a364.21 364.21 0 0 0-.036 3.932c.004 1.39.02 2.766.036 3.926.02 1.484.04 3.016.406 4.444.366 1.44 1.074 2.594 2.1 3.43 1.11.906 2.464 1.412 4.026 1.508 2.2.134 4.468.196 6.928.19zm-.06-5.688A7.82 7.82 0 0 1 8.126 16a7.82 7.82 0 0 1 7.814-7.812A7.82 7.82 0 0 1 23.75 16a7.82 7.82 0 0 1-7.812 7.812zm0-13.124A5.32 5.32 0 0 0 10.626 16a5.32 5.32 0 0 0 5.314 5.312A5.32 5.32 0 0 0 21.25 16a5.32 5.32 0 0 0-5.312-5.312zm8.69-5-.061-.001a1.876 1.876 0 0 0 0 3.752l.064-.001h-.003a1.877 1.877 0 0 0 .003-3.75h-.003z"/></symbol><symbol id="location" viewBox="0 0 23 32"><path d="M11.733 0c6.47 0 11.733 5.131 11.733 11.439a11.17 11.17 0 0 1-2.34 6.857l-8.67 11.379c-.021.028-.055.038-.079.064a.886.886 0 0 1-1.364-.062l-.002-.002c-2.5-3.243-7.076-9.31-8.834-11.597l-.002-.002-.011-.015a11.077 11.077 0 0 1-2.165-6.607v-.016.001C-.001 5.131 5.262 0 11.732 0zm0 17.609c3.484 0 6.33-2.773 6.33-6.17s-2.846-6.172-6.33-6.172-6.33 2.773-6.33 6.172c0 3.394 2.846 6.17 6.33 6.17z"/></symbol><symbol id="logo" viewBox="0 0 72 32"><path d="M42.865 15.997c0 .261-.008.521 0 .783.09 2.652-.746 5.042-2.089 7.296a29.024 29.024 0 0 0-1.183 2.127l-.086.187c-.32.649-.765 1.104-1.456 1.37-.386.148-.745.405-1.068.669-1.49 1.218-3.18 2.09-4.989 2.705-1.201.408-2.438.767-3.743.751-.389-.005-.779.114-1.168.115s-.779-.124-1.165-.107c-1.682.071-3.241-.441-4.789-.979-1.689-.587-3.18-1.513-4.583-2.618-1.979-1.558-3.391-3.52-4.428-5.765-.559-1.21-1.014-2.46-1.142-3.803-.021-.223-.096-.443-.162-.66-.471-1.507-.2-2.985.091-4.486.223-1.148.452-2.283.886-3.373 1.146-2.884 2.967-5.245 5.488-7.1C19.381 1.564 21.733.615 24.292.207c2.935-.468 5.8-.131 8.58.963 1.387.548 2.696 1.241 3.839 2.16 1.066.856 2.028 1.858 2.936 2.882.824.928 1.408 2.034 1.93 3.162.815 1.762 1.347 3.586 1.293 5.546-.012.362-.003.721-.004 1.08zm-1.126-3.57c-.081-.616-.132-1.329-.284-2.021-.433-1.993-1.599-3.547-3.152-4.818-.882-.722-1.843-1.349-2.791-1.988-.321-.216-.694-.415-1.068-.481-.963-.176-1.937-.34-2.914-.389-1.695-.086-3.217-.519-4.496-1.685-.942-.858-1.967-.941-2.946-.186-1.11.855-2.373 1.358-3.659 1.855-.943.364-1.851.823-2.758 1.276-.758.379-1.199.971-1.189 1.867.006.503-.226.923-.697 1.201-.432.259-.8.514-1.15.79l.023-.017c-1.003.782-1.785 1.661-1.953 3.027-.133 1.08-.464 2.149-1.211 3.038a2.007 2.007 0 0 0-.446 1.06l-.001.009c-.069.807-.04 1.625-.02 2.437.005.218.101.451.213.642.258.452.539.891.842 1.315.734 1.01 1.373 2.046 1.52 3.329.143 1.243.75 2.257 1.776 3.03 1.487 1.12 2.921 2.31 4.43 3.402.811.588 1.68 1.103 2.75 1.221s2.119.408 3.078.941c.201.107.422.174.649.197 1.353.145 2.606-.187 3.795-.814.373-.197.757-.375 1.142-.546.929-.411 1.958-.682 2.768-1.255.901-.639 1.863-.922 2.896-1.101.446-.078.811-.26 1.102-.588.346-.39.667-.802 1.029-1.179.374-.389.644-.802.709-1.356.101-.849.468-1.599.933-2.32.789-1.217 1.237-2.562 1.47-3.992.061-.375.096-.693-.091-1.023-.543-.953-.322-2.034-.493-3.049-.087-.549.113-1.148.197-1.831l-.002.001zm-6.533-9.518c-.229-.251-.302-.364-.406-.434-.187-.128-.392-.233-.591-.344-1.703-.95-3.569-1.412-5.476-1.743-.383-.068-.785-.037-1.176-.022-.102.004-.223.101-.288.19-.03.04.037.181.093.248.419.491.959.868 1.575 1.084l.026.008c.994.366 2.141.591 3.337.623h.014c.485.013.967.104 1.45.169.411.058.822.127 1.441.223zM20.733 30.284c-1.143-.925-2.146-1.752-3.166-2.556-.844-.666-1.707-1.309-2.57-1.952-.097-.072-.25-.07-.462-.124 1.04 1.728 4.513 4.353 6.198 4.632zM13.029 8.699c.69-.521 1.328-1.07 2.028-1.525.982-.633 1.358-1.421 1.126-2.773-.697.564-1.194 1.243-1.731 1.861-.568.651-.989 1.426-1.462 2.155-.037.059.023.175.04.281zm23.256 19.722c-.643-.043-1.291.069-1.695.412-.766.652-1.677.98-2.604 1.306-.486.171-.945.422-1.403.662-.064.033-.075.209-.062.313.005.035.176.092.247.069.832-.281 1.691-.507 2.48-.882.966-.459 1.874-1.04 2.799-1.579.097-.054.148-.181.239-.299zm-24.576-9.04c-.185.539-.149.838-.032 1.157.322.882.518 1.814 1.099 2.585.216.286.26.926.657.788.35-.12-.059-.626-.084-.968-.091-1.304-.784-2.355-1.641-3.561zm6.24-16.239.086.129c.48-.176.966-.343 1.441-.532 2.525-.954 3.546-1.377 4.562-1.807l-1.47.552c.207-.087.397-.225.574-.366.049-.04.041-.175.025-.259-.008-.037-.106-.078-.162-.08a.997.997 0 0 0-.291.049l.007-.002c-1.397.393-2.715.974-3.975 1.68-.295.165-.534.422-.798.636zm24.533 14.005c.085-.097.151-.138.155-.183.136-1.421-.016-2.829-.213-4.233-.01-.071-.108-.172-.176-.181-.074-.009-.19.052-.235.117a.735.735 0 0 0-.133.349v.003a13.427 13.427 0 0 0 .244 3.546l-.015-.086c.044.23.237.432.373.668zm-31.11-3.921c.545-.206.626-.578.685-.914.142-.821.498-1.61.381-2.477-.57 1.035-1.075 2.084-1.066 3.392zm13.193 18.008c-1.221-.535-1.553-.592-2.641-.441.461.173.876.448 1.294.452.435.006.907.534 1.348-.011z"/><path d="M27.086 20.593c-.836-.015-1.41-.361-1.835-1.03-.396-.624-1.054-.947-1.658-1.332-.76-.484-1.379-1.03-1.554-2.012-.122-.666.02-1.243.293-1.769.229-.439.638-.847 1.067-1.108.466-.283.852-.55 1.067-1.074.243-.602.857-.638 1.4-.746.511-.101 1.031-.167 1.536-.294.689-.174 1.315-.121 1.819.411.389.412.844.708 1.351.958.527.26.701.564.536 1.107-.112.369-.004.62.135.914.152.321.308.647.412.986.347 1.128-.053 2.077-1.122 2.58-.663.311-1.17.726-1.335 1.456a.683.683 0 0 1-.514.537c-.529.153-1.065.28-1.599.417zm3.507-4.729c.017-1.987-1.505-3.576-3.484-3.579-1.776 0-3.562 1.19-3.632 3.469-.055 1.824 1.48 3.524 3.481 3.53 2.437.012 3.587-1.663 3.634-3.42zm-7.134 1.901c0-.255.025-.385-.004-.503-.263-1.079-.433-2.149.162-3.188.043-.075-.056-.229-.09-.346-.117.037-.258.045-.346.117-.984.799-1.423 2.718.277 3.92zm3.652-5.977c.411.149.647.255.892.321.907.238 1.68.664 2.218 1.451.106.155.243.385.446.209.108-.095.143-.383.081-.527-.084-.191-.274-.43-.458-.468-.498-.103-.771-.46-1.095-.771-.546-.519-1.156-.682-2.085-.215zm-.055 7.822-.012-.075c-.261 0-.525-.022-.782.009-.133.016-.252.128-.378.196.114.1.213.257.345.289.702.176 1.411.213 2.103-.055.119-.047.25-.107.325-.201.066-.08.087-.222.074-.33-.005-.04-.169-.101-.25-.088-.475.074-.95.167-1.423.254l-.002.001zm3.593-2.038c.486-.09.704-.361.732-.779a7.024 7.024 0 0 0-.016-1.056c-.008-.093-.139-.176-.213-.263-.108.101-.328.238-.308.299.198.609-.216 1.155-.197 1.798v.001zm4.452 2.751c-.028.014-.141.107-.263.12-.111.013-.273-.024-.342-.101a17.258 17.258 0 0 1-.96-1.156l-.031-.043c-.081-.109-.114-.401-.068-.427.152-.083.449-.17.516-.098.391.427.736.897 1.089 1.358.035.046.024.125.059.346zM18.53 23.669c.181.014.538.025.887.084.087.015.203.183.203.283s-.101.273-.187.294c-.677.167-1.351.208-1.951-.24a.297.297 0 0 1-.097-.221l.001-.027v.001c.013-.067.118-.16.189-.165.26-.022.521-.01.955-.01zM39.757 9.562l.256.139c-.072.129-.117.336-.223.373a9.95 9.95 0 0 1-1.428.411l-.069.012c-.146.028-.359-.114-.494-.231-.155-.136-.063-.432.133-.461.577-.088 1.158-.155 1.824-.242zM22.514 26.54c.272.125.498.16.609.294.283.344.556.727.804 1.128l.026.045c.122.195.011.406-.194.462-.112.031-.316-.059-.399-.16-.308-.365-.61-.769-.888-1.19l-.03-.048c-.065-.102.036-.308.072-.532zm10.632-15.522c.017-.114 0-.245.054-.294.073-.066.23-.121.304-.085.103.049.169.182.24.287.197.291.39.584.577.882.084.134.196.276.203.421a.56.56 0 0 1-.175.397c-.057.051-.289.018-.346-.053-.375-.471-.824-.912-.858-1.554zm1.166-5.008c-.081.481-.113.836-.208 1.175a.97.97 0 0 1-.325.465c-.107.086-.295.073-.446.105-.012-.14-.056-.286-.031-.419.079-.41.185-.815.28-1.222.007-.032.005-.065.015-.096.075-.245.236-.432.494-.331.13.051.191.276.221.323zm-6.994 3.131c.228.028.523.043.805.111.096.023.238.194.221.268-.029.133-.14.306-.258.345a.98.98 0 0 1-.578.001l.007.002c-.325-.102-.626-.136-.95-.002-.213.088-.412-.005-.469-.214-.076-.281.137-.417.377-.456.256-.043.519-.036.845-.054zm5.06 13.829c-.092.398-.162.748-.262 1.089-.019.067-.162.157-.222.142-.108-.026-.26-.11-.282-.198a1.271 1.271 0 0 1-.015-.586l-.001.008c.076-.35.151-.682.008-1.04-.069-.171-.049-.444.214-.443.142 0 .345.173.409.316.104.229.111.498.151.71zm-3.992-.102c-.053.094-.078.204-.148.251-.427.291-.855.583-1.304.838-.115.065-.316.025-.463-.018-.215-.063-.259-.342-.081-.455.342-.228.829-.528 1.324-.817l.168-.091c.081-.046.243.003.348.055.071.035.102.149.155.237zM22.944 4.155c.07.04.2.075.218.138.169.618.333 1.239.468 1.864.038.174-.195.27-.351.166-.491-.326-.796-1.536-.51-2.042.03-.05.102-.075.176-.128zm6.06 1.756c-.148-.097-.307-.147-.329-.231-.023-.091.053-.247.136-.321.36-.318.736-.617 1.127-.897.132-.091.406-.157.507-.085.239.166.113.401-.053.573-.224.231-.446.475-.704.662-.198.141-.452.201-.685.299zM19.68 9.177l-.358.335c-.102-.11-.254-.2-.297-.331a18.267 18.267 0 0 1-.416-1.39l-.037-.165c-.019-.072.041-.219.102-.244.099-.04.263-.056.338 0 .149.109.319.254.367.417.128.425.195.87.301 1.377zm-3.925 8.58c-.329.597-.579 1.207-1.191 1.533-.103.055-.331-.015-.441-.102-.187-.147 0-.27.091-.395.287-.391.553-.8.858-1.177.079-.096.279-.144.414-.131.093.008.168.164.268.272zm3.715.051c.171.098.296.128.319.192.038.106.058.272 0 .346-.094.117-.255.184-.394.263-.36.204-.715.42-1.089.594a.497.497 0 0 1-.421-.035c-.209-.147-.136-.383.032-.487.514-.318 1.054-.597 1.553-.873zm18.596-2.702c-.132.295-.318.74-.538 1.167-.034.066-.247.102-.338.063-.084-.037-.176-.204-.159-.295.089-.475.186-.953.335-1.412.046-.14.251-.267.408-.314.059-.017.212.201.284.334.042.075.007.191.007.457zm-22.415-3.544c.582.517.513 1.218.577 1.867.012.12-.139.293-.26.379-.063.046-.32-.027-.326-.07a30.072 30.072 0 0 1-.209-1.833l-.01-.138c-.005-.056.133-.125.228-.205zM29.253 27.56c.098.026.194.057.288.093.349.16.701.316 1.042.493.162.083.325.187.441.321.134.154-.019.451-.207.41-.634-.136-1.254-.325-1.728-.794-.07-.069-.069-.243-.046-.358.013-.065.136-.11.21-.165zm-7.72-15.809c.033.104.149.265.108.366-.213.536-.46 1.059-.711 1.579-.031.064-.162.12-.24.11-.069-.008-.162-.103-.18-.175-.133-.579.287-1.615.754-1.876.048-.027.125-.004.268-.004zm18.139 8.788c-.073-.046-.225-.102-.304-.21-.032-.043.07-.239.159-.301.339-.251.732-.512 1.137-.753l.066-.036c.112-.064.345-.069.427.004.076.067.087.32.019.414-.348.48-.787.846-1.504.882zm-2.41 4.131c-.301-.031-.432-.034-.557-.062-.053-.012-.133-.074-.133-.114l-.001-.026c0-.087.026-.167.07-.234l-.001.002a.5.5 0 0 1 .243-.151c.464-.138.928-.276 1.399-.388.102-.024.318.043.331.101.031.137-.006.303-.06.441-.029.073-.144.134-.231.16-.403.11-.808.208-1.06.272zM23.29 21.355c-.033.14-.087.45-.192.743-.026.072-.229.142-.322.116s-.203-.178-.2-.273c.01-.541.037-1.083.092-1.622.012-.117.162-.221.249-.331.104.109.272.205.299.329.058.279.046.573.073 1.039zM45.035 4.422c0-1.147.28-2.016.841-2.608.567-.599 1.293-.898 2.178-.898s1.589.258 2.111.775c.529.517.793 1.342.793 2.475s-.28 1.99-.841 2.57c-.56.579-1.309.869-2.245.869-.809 0-1.471-.229-1.987-.689-.267-.239-.478-.57-.63-.992-.146-.428-.219-.929-.219-1.502zm2.99-3.41c-.643 0-1.172.283-1.586.85-.407.567-.611 1.398-.611 2.494s.194 1.896.583 2.4c.388.504.904.756 1.547.756.65 0 1.178-.283 1.586-.85.414-.573.621-1.401.621-2.485 0-1.09-.197-1.89-.592-2.4a1.851 1.851 0 0 0-1.548-.765zm4.585 6.556h-.793V.955h.793v3.042h3.105V.954h.793v6.614h-.793V4.091H52.61v3.477zm7.974 0h-.124l.831-6.614h.315l2.006 6.113L65.609.954h.315l.831 6.614h-.793l-.659-5.29-1.729 5.29h-.602l-1.748-5.225-.64 5.225zM72.047.955a.62.62 0 0 1 .181.463c0 .157-.035.318-.105.482l-1.71 3.429v2.239h-.793V5.537L67.709.955h.812l1.824 4.261L72.007 1.9c.07-.158.105-.321.105-.491s-.048-.302-.143-.397l.076-.057zm-70.7 8.351c.431-.021.938-.033 1.447-.033h.001c.483 0 .987.05 1.515.149.539.1 1.066.289 1.583.566a4.15 4.15 0 0 1 1.325 1.042l.005.006c.37.422.667.982.892 1.681s.337 1.549.337 2.548-.169 1.898-.505 2.697c-.325.788-.774 1.393-1.347 1.815-1.111.821-2.453 1.232-4.024 1.232a23.63 23.63 0 0 1-1.815-.072l.081.005H0V9.305h1.347zm.05 11.505c.236.023.534.033.892.033s.629-.006.808-.016.426-.056.741-.133a4.36 4.36 0 0 0 .899-.361l-.023.011c.27-.144.55-.355.842-.633a4.18 4.18 0 0 0 .764-.994l.011-.021c.482-.91.724-2.098.724-3.563 0-1.043-.129-1.942-.387-2.697-.258-.766-.555-1.332-.892-1.698a3.49 3.49 0 0 0-1.173-.857l-.022-.009c-.471-.222-.848-.35-1.128-.383a8.165 8.165 0 0 0-.919-.05h-.061.003c-.37 0-.729.017-1.077.05v11.321zm43.911.133h-.219V9.289h.572l7.003 10.772V9.289h.219v11.654h-1.229l-6.347-9.657v9.657zM63.25 9.29h.219v6.66c0 1.743-.348 3.024-1.044 3.846-.696.81-1.605 1.216-2.727 1.216-.707 0-1.307-.061-1.801-.183a3.893 3.893 0 0 1-1.398-.716c-.898-.688-1.347-2.075-1.347-4.162v-6.66h1.398v6.643c0 2.021.309 3.369.926 4.046.314.333.64.561.976.683.348.122.763.183 1.246.183 1.078 0 1.936-.389 2.576-1.165.651-.788.976-2.037.976-3.746V9.291zm5.962 11.654h-1.397V9.456h-2.912V9.29h7.239v.166h-2.929v11.488z"/></symbol><symbol id="menu" viewBox="0 0 60 32"><path d="M2 0h56a2 2 0 1 1 0 4H2a2 2 0 1 1 0-4zM2 14h56a2 2 0 1 1 0 4H2a2 2 0 1 1 0-4zM2 28h56a2 2 0 1 1 0 4H2a2 2 0 1 1 0-4z"/></symbol><symbol id="rate4" viewBox="0 0 173 32"><path fill="#edd501" style="fill:var(--color5,#edd501)" d="M14.249 4.681c.384-1.18 2.052-1.18 2.435 0l1.908 5.871c.172.517.652.883 1.217.883h6.173c1.242 0 1.756 1.587.753 2.317l-4.995 3.629a1.279 1.279 0 0 0-.462 1.44l-.003-.009 1.907 5.873c.384 1.178-.966 2.159-1.97 1.431l-4.995-3.63a1.276 1.276 0 0 0-1.508.003l.004-.003-4.996 3.63c-1.002.728-2.353-.252-1.97-1.431l1.908-5.873a1.278 1.278 0 0 0-.461-1.429l-.004-.003-4.996-3.629c-1.002-.73-.486-2.317.753-2.317h6.175c.565 0 1.044-.366 1.213-.874l.003-.009 1.908-5.871z"/><path fill="none" stroke="#edd501" style="stroke:var(--color5,#edd501)" stroke-width="1.28" d="M156.724 4.878a.641.641 0 0 1 1.216-.004l.001.005 1.908 5.871a1.923 1.923 0 0 0 1.825 1.327h6.175a.64.64 0 0 1 .378 1.156l-.002.001-4.996 3.63a1.922 1.922 0 0 0-.693 2.161l-.004-.014 1.907 5.871a.64.64 0 0 1-.986.714l.002.001-4.996-3.629c-.312-.229-.704-.367-1.128-.367s-.816.137-1.134.37l.005-.004-4.995 3.629a.64.64 0 0 1-.984-.72l-.001.005 1.908-5.871a1.921 1.921 0 0 0-.692-2.143l-.005-.004-4.995-3.63a.64.64 0 0 1 .376-1.157h6.173c.849 0 1.569-.55 1.822-1.314l.004-.014 1.907-5.871z"/><path fill="#edd501" style="fill:var(--color5,#edd501)" d="M120.649 4.681c.384-1.18 2.052-1.18 2.435 0l1.908 5.871c.172.517.652.883 1.217.883h6.173c1.24 0 1.756 1.587.753 2.317l-4.995 3.629a1.279 1.279 0 0 0-.462 1.44l-.003-.009 1.907 5.873c.384 1.178-.966 2.159-1.97 1.431l-4.995-3.63a1.276 1.276 0 0 0-1.508.003l.004-.003-4.996 3.63c-1.002.728-2.353-.252-1.969-1.431l1.907-5.873a1.278 1.278 0 0 0-.461-1.429l-.004-.003-4.996-3.629c-1.002-.73-.486-2.317.753-2.317h6.175c.565 0 1.044-.366 1.213-.874l.003-.009 1.908-5.871zm-35.466 0c.384-1.18 2.052-1.18 2.435 0l1.907 5.871c.172.517.652.883 1.217.883h6.175c1.24 0 1.756 1.587.753 2.317l-4.995 3.629a1.279 1.279 0 0 0-.463 1.44l-.003-.009 1.907 5.873c.384 1.178-.965 2.159-1.969 1.431l-4.995-3.63a1.276 1.276 0 0 0-1.509.002l.004-.003-4.995 3.63c-1.004.728-2.353-.252-1.97-1.431l1.907-5.873a1.278 1.278 0 0 0-.461-1.429l-.004-.003-4.995-3.629c-1.004-.73-.486-2.317.753-2.317h6.173a1.28 1.28 0 0 0 1.214-.874l.003-.009 1.907-5.871zm-35.468 0c.384-1.18 2.052-1.18 2.436 0l1.907 5.871c.172.517.652.883 1.217.883h6.175c1.24 0 1.755 1.587.753 2.317l-4.996 3.629a1.279 1.279 0 0 0-.462 1.44l-.003-.009 1.907 5.873c.384 1.178-.966 2.159-1.969 1.431l-4.995-3.63a1.276 1.276 0 0 0-1.509.002l.004-.003-4.995 3.63c-1.004.728-2.353-.252-1.971-1.431l1.908-5.873a1.278 1.278 0 0 0-.461-1.429l-.004-.003-4.995-3.629c-1.004-.73-.488-2.317.753-2.317h6.173a1.28 1.28 0 0 0 1.214-.874l.003-.009 1.907-5.871z"/></symbol><symbol id="rate5" viewBox="0 0 181 32"><path fill="#edd501" style="fill:var(--color5,#edd501)" d="M14.732 3.903c.4-1.228 2.137-1.228 2.536 0l2.025 6.232c.179.538.678.92 1.267.92h6.553c1.292 0 1.828 1.653.784 2.413l-5.301 3.851a1.331 1.331 0 0 0-.481 1.5l-.003-.009 2.024 6.232c.4 1.229-1.007 2.251-2.051 1.491l-5.301-3.851a1.334 1.334 0 0 0-1.572.002l.004-.003-5.301 3.851c-1.044.76-2.451-.263-2.051-1.491l2.024-6.232a1.332 1.332 0 0 0-.481-1.488l-.004-.003-5.301-3.851c-1.044-.76-.507-2.413.784-2.413h6.552c.589 0 1.088-.381 1.265-.911l.003-.009 2.025-6.232zm149.333 0c.399-1.228 2.137-1.228 2.536 0l2.025 6.232c.179.539.679.92 1.268.92h6.552c1.292 0 1.828 1.653.784 2.413l-5.301 3.851a1.331 1.331 0 0 0-.481 1.5l-.003-.009 2.024 6.232c.4 1.229-1.007 2.251-2.051 1.491l-5.301-3.851a1.334 1.334 0 0 0-1.572.002l.004-.003-5.301 3.851c-1.044.76-2.451-.263-2.051-1.491l2.024-6.232a1.332 1.332 0 0 0-.481-1.488l-.004-.003-5.301-3.851c-1.044-.76-.508-2.413.784-2.413h6.552c.589 0 1.088-.381 1.265-.911l.003-.009 2.025-6.232zm-37.333 0c.4-1.228 2.137-1.228 2.536 0l2.025 6.232c.179.538.678.92 1.267.92h6.553c1.292 0 1.828 1.653.784 2.413l-5.301 3.851a1.331 1.331 0 0 0-.481 1.5l-.003-.009 2.024 6.232c.4 1.229-1.007 2.251-2.051 1.491l-5.301-3.851a1.334 1.334 0 0 0-1.572.002l.004-.003-5.301 3.851c-1.044.76-2.451-.263-2.051-1.491l2.024-6.232a1.332 1.332 0 0 0-.481-1.488l-.004-.003-5.301-3.851c-1.045-.76-.507-2.413.784-2.413h6.552c.589 0 1.088-.381 1.265-.911l.003-.009 2.025-6.232zm-37.333 0c.4-1.228 2.137-1.228 2.536 0l2.025 6.232c.179.538.678.92 1.267.92h6.553c1.292 0 1.829 1.653.784 2.413l-5.301 3.851a1.331 1.331 0 0 0-.481 1.5l-.003-.009 2.024 6.232c.4 1.229-1.007 2.251-2.051 1.491l-5.301-3.851a1.334 1.334 0 0 0-1.572.002l.004-.003-5.301 3.851c-1.044.76-2.451-.263-2.051-1.491l2.024-6.232a1.332 1.332 0 0 0-.481-1.488l-.004-.003-5.301-3.851c-1.044-.76-.507-2.413.784-2.413h6.552c.589 0 1.088-.381 1.265-.911l.003-.009 2.025-6.232zm-37.334 0c.4-1.228 2.137-1.228 2.536 0l2.025 6.232c.179.538.678.92 1.267.92h6.553c1.292 0 1.828 1.653.784 2.413l-5.301 3.851a1.331 1.331 0 0 0-.481 1.5l-.003-.009 2.024 6.232c.4 1.229-1.007 2.251-2.051 1.491l-5.301-3.851a1.334 1.334 0 0 0-1.572.002l.004-.003-5.3 3.851c-1.045.76-2.452-.263-2.053-1.491l2.027-6.232a1.332 1.332 0 0 0-.482-1.488l-.004-.003-5.301-3.851c-1.045-.76-.507-2.413.784-2.413h6.552c.589 0 1.088-.381 1.265-.911l.003-.009 2.025-6.232z"/></symbol><symbol id="twitter" viewBox="0 0 32 32"><path d="M32 5.44c-1.097.551-2.37.957-3.712 1.152l-.068.008c1.36-.908 2.398-2.336 2.886-4.054a12.155 12.155 0 0 1-4.077 1.758l-.083.016C25.742 2.888 24.026 2 22.154 2c-3.632 0-6.556 3.296-6.556 7.336 0 .58.044 1.14.152 1.672-5.454-.298-10.28-3.22-13.522-7.672a7.953 7.953 0 0 0-.898 3.697v.011-.001c0 2.54 1.17 4.79 2.914 6.094a5.942 5.942 0 0 1-2.988-.918l.024.014v.08c0 3.566 2.274 6.526 5.256 7.208a5.94 5.94 0 0 1-1.72.24c-.42 0-.844-.026-1.242-.124.85 2.904 3.262 5.04 6.13 5.108-2.232 1.952-5.066 3.128-8.134 3.128-.538 0-1.054-.028-1.57-.1 2.906 2.094 6.35 3.29 10.064 3.29 12.072 0 18.672-11.18 18.672-20.868 0-.324-.01-.638-.024-.948a14.157 14.157 0 0 0 3.253-3.744L32 5.439z"/></symbol></defs></svg>