<svg aria-hidden="true" style="position: absolute; width: 0; height: 0; overflow: hidden;" version="1.1" xmlns="http://www.w3.org/2000/svg" xmlns:xlink="http://www.w3.org/1999/xlink">
<defs>
<symbol id="chef" viewBox="0 0 32 32">
<path fill="#fff" style="fill: var(--color1, #fff); stroke: var(--color2, #f3848c)" stroke="#f3848c" stroke-linejoin="miter" stroke-linecap="butt" stroke-miterlimit="4" stroke-width="1.3333" d="M31.333 16c0 8.468-6.865 15.333-15.333 15.333s-15.333-6.865-15.333-15.333c0-8.468 6.865-15.333 15.333-15.333s15.333 6.865 15.333 15.333z"></path>
<path fill="#fff" style="fill: var(--color1, #fff)" d="M29.333 16c0 7.364-5.97 13.333-13.333 13.333s-13.333-5.97-13.333-13.333c0-7.364 5.97-13.333 13.333-13.333s13.333 5.97 13.333 13.333z"></path>
<path fill="none" stroke="#f3848c" style="stroke: var(--color2, #f3848c)" stroke-linejoin="miter" stroke-linecap="round" stroke-miterlimit="4" stroke-width="0.6667" d="M29 16c0 7.18-5.82 13-13 13s-13-5.82-13-13c0-7.18 5.82-13 13-13s13 5.82 13 13z"></path>
<path fill="#000" style="fill: var(--color3, #000)" d="M9.333 10.953c0 1.413 1.032 2.587 2.38 2.813v4.329c0 0 0 0 0 0 0 0.263 0.213 0.476 0.476 0.476 0 0 0.001 0 0.001 0h7.62c0.263 0 0.476-0.213 0.476-0.476v0-4.329c1.358-0.237 2.377-1.406 2.38-2.813v-0c-0.002-1.577-1.28-2.856-2.857-2.857h-1.077c-0.609-0.868-1.605-1.428-2.732-1.429h-0c-1.129 0-2.129 0.567-2.732 1.429h-1.077c-1.577 0.002-2.856 1.28-2.857 2.857v0zM12.667 17.144h6.667v0.475h-6.667v-0.475zM12.191 9.048h0.616c-0.093 0.309-0.14 0.629-0.14 0.952 0 0.263 0.213 0.476 0.476 0.476s0.476-0.213 0.476-0.476v0c0-1.313 1.068-2.381 2.381-2.381s2.381 1.068 2.381 2.381c0 0.263 0.213 0.476 0.476 0.476s0.476-0.213 0.476-0.476v0c0-0.331-0.049-0.649-0.14-0.952h0.616c1.050 0.004 1.9 0.856 1.9 1.907 0 0.524-0.211 0.998-0.553 1.343l0-0c-0.344 0.344-0.818 0.558-1.342 0.56h-0.003c-0.001 0-0.002 0-0.003 0-0.262 0-0.475 0.213-0.475 0.475 0 0 0 0.001 0 0.001v-0 2.859h-6.667v-2.859c0-0 0-0.001 0-0.001 0-0.263-0.213-0.476-0.476-0.476 0 0 0 0 0 0h-0.004c-1.008-0.056-1.805-0.887-1.805-1.904s0.798-1.85 1.802-1.904l0.005-0zM21.237 20.477h-10.475c-0.263 0-0.476 0.213-0.476 0.476s0.213 0.476 0.476 0.476h10.475c0.263 0 0.476-0.213 0.476-0.476s-0.213-0.476-0.476-0.476v0zM21.237 21.905h-10.475c-0.263 0-0.477 0.213-0.477 0.477s0.213 0.477 0.477 0.477v0h10.475c0.263 0 0.477-0.213 0.477-0.477s-0.213-0.477-0.477-0.477v0zM18.856 23.347h-5.712c-0.263 0-0.476 0.213-0.476 0.476s0.213 0.476 0.476 0.476h5.712c0.263 0 0.476-0.213 0.476-0.476s-0.213-0.476-0.476-0.476v0z"></path>
</symbol>
<symbol id="close" viewBox="0 0 32 32">
<path d="M23.884 6.706l-7.884 7.884-7.884-7.884c-0.177-0.162-0.414-0.262-0.674-0.262-0.551 0-0.998 0.447-0.998 0.998 0 0.26 0.099 0.497 0.262 0.674l-0.001-0.001 7.88 7.884-7.882 7.882c-0.181 0.181-0.293 0.43-0.293 0.706 0 0.551 0.447 0.998 0.998 0.998 0.275 0 0.524-0.111 0.705-0.292v0l7.886-7.882 7.884 7.884c0.177 0.162 0.414 0.262 0.674 0.262 0.551 0 0.998-0.447 0.998-0.998 0-0.26-0.099-0.497-0.262-0.674l0.001 0.001-7.884-7.884 7.884-7.886c0.181-0.181 0.293-0.43 0.293-0.706 0-0.551-0.447-0.998-0.998-0.998-0.275 0-0.524 0.111-0.705 0.292v0 0.002z"></path>
</symbol>
<symbol id="cloud" viewBox="0 0 73 32">
<path fill="#f6f7f7" style="fill: var(--color4, #f6f7f7)" d="M0 1.301c0-0.718 0.582-1.301 1.301-1.301h47.648c0.059 0 0.118 0.004 0.176 0.014 0.842 0.145 7.489 1.523 7.489 8.888 0 7.862 6.926 4.158 7.576 12.735 0.632 8.326 9.994 10.529 8.967 10.353-0.073-0.014-0.157-0.022-0.243-0.022h-71.613c-0.718 0-1.301-0.582-1.301-1.301v-29.367z"></path>
</symbol>
<symbol id="cloudbig" viewBox="0 0 127 32">
<path fill="#f6f7f7" style="fill: var(--color4, #f6f7f7)" d="M0 1.301c0-0.718 0.582-1.301 1.301-1.301h90.511c0.044 0 0.081 0.001 0.124 0.006 0.884 0.103 11.49 1.492 11.49 9.034 0 7.87 9.892 4.033 11.052 12.618s12.349 10.341 11.961 10.341h-125.138c-0.718 0-1.301-0.582-1.301-1.301v-29.398z"></path>
</symbol>
<symbol id="facebook" viewBox="0 0 32 32">
<path d="M22.512 0.006l-3.616-0.006c-4.064 0-6.69 3.092-6.69 7.876v3.63h-3.638c-0.314 0-0.568 0.294-0.568 0.654v5.26c0 0.36 0.254 0.652 0.568 0.652h3.638v13.276c0 0.36 0.254 0.652 0.568 0.652h4.746c0.314 0 0.568-0.292 0.568-0.652v-13.276h4.252c0.314 0 0.568-0.292 0.568-0.652l0.002-5.26c0-0.174-0.060-0.34-0.166-0.462-0.097-0.116-0.241-0.189-0.402-0.192h-4.254v-3.078c0-1.48 0.308-2.23 1.986-2.23h2.438c0.314 0 0.568-0.294 0.568-0.654v-4.884c0-0.36-0.254-0.652-0.568-0.654z"></path>
</symbol>
<symbol id="instagram" viewBox="0 0 32 32">
<path d="M16.316 32h-0.32c-0.137 0.001-0.299 0.001-0.461 0.001-2.329 0-4.64-0.072-6.933-0.212l0.314 0.015c-2.066-0.126-3.952-0.84-5.454-2.064-1.45-1.182-2.44-2.78-2.942-4.75-0.44-1.716-0.46-3.4-0.484-5.026-0.016-1.17-0.032-2.554-0.036-3.96 0.004-1.414 0.020-2.8 0.036-3.968 0.022-1.628 0.046-3.31 0.484-5.026 0.5-1.97 1.492-3.568 2.94-4.75 1.506-1.224 3.392-1.94 5.46-2.064 2.252-0.138 4.57-0.2 7.084-0.196 0.132-0.001 0.288-0.001 0.443-0.001 2.335 0 4.653 0.071 6.952 0.212l-0.316-0.015c2.066 0.124 3.952 0.84 5.454 2.064 1.45 1.182 2.44 2.78 2.944 4.75 0.436 1.716 0.46 3.4 0.48 5.026 0.018 1.17 0.034 2.554 0.038 3.96v0.006c-0.004 1.408-0.020 2.792-0.036 3.96-0.022 1.63-0.046 3.312-0.482 5.028-0.504 1.97-1.494 3.568-2.944 4.75-1.502 1.224-3.388 1.94-5.454 2.064-1.968 0.125-4.268 0.196-6.585 0.196-0.064 0-0.129-0-0.193-0h0.010zM15.996 29.5c0.143 0.001 0.312 0.001 0.48 0.001 2.271 0 4.526-0.069 6.763-0.206l-0.307 0.015c1.56-0.096 2.916-0.602 4.026-1.508 1.026-0.836 1.734-1.99 2.1-3.43 0.364-1.428 0.386-2.96 0.406-4.444 0.016-1.16 0.032-2.534 0.036-3.928-0.004-1.394-0.020-2.768-0.036-3.93-0.020-1.48-0.040-3.014-0.406-4.44-0.368-1.44-1.074-2.596-2.1-3.432-1.11-0.906-2.464-1.412-4.026-1.508-1.93-0.122-4.186-0.191-6.457-0.191-0.167 0-0.333 0-0.5 0.001l0.026-0c-0.144-0.001-0.314-0.001-0.485-0.001-2.269 0-4.522 0.069-6.756 0.206l0.307-0.015c-1.56 0.096-2.916 0.602-4.026 1.508-1.026 0.836-1.734 1.99-2.1 3.43-0.364 1.428-0.386 2.96-0.406 4.442-0.016 1.162-0.032 2.538-0.036 3.932 0.004 1.39 0.020 2.766 0.036 3.926 0.020 1.484 0.040 3.016 0.406 4.444 0.366 1.44 1.074 2.594 2.1 3.43 1.11 0.906 2.464 1.412 4.026 1.508 2.2 0.134 4.468 0.196 6.928 0.19zM15.936 23.812c-4.312-0.006-7.805-3.5-7.81-7.812v-0c0.005-4.313 3.501-7.809 7.814-7.812h0c4.312 0.006 7.805 3.5 7.81 7.812v0c-0.005 4.313-3.499 7.807-7.812 7.812h-0zM15.936 10.688c-2.931 0.006-5.305 2.381-5.31 5.312v0c0.005 2.933 2.381 5.309 5.314 5.312h0c2.931-0.006 5.305-2.381 5.31-5.312v-0c-0.005-2.932-2.38-5.307-5.312-5.312h-0zM24.626 5.688c-0.018-0.001-0.040-0.001-0.061-0.001-1.036 0-1.876 0.84-1.876 1.876s0.84 1.876 1.876 1.876c0.022 0 0.043-0 0.064-0.001l-0.003 0c1.009-0.034 1.815-0.86 1.815-1.875s-0.805-1.841-1.812-1.875l-0.003-0z"></path>
</symbol>
<symbol id="logo" viewBox="0 0 72 32">
<path d="M42.865 15.997c0 0.261-0.008 0.521 0 0.783 0.090 2.652-0.746 5.042-2.089 7.296-0.369 0.594-0.791 1.352-1.183 2.127l-0.086 0.187c-0.32 0.649-0.765 1.104-1.456 1.37-0.386 0.148-0.745 0.405-1.068 0.669-1.49 1.218-3.18 2.090-4.989 2.705-1.201 0.408-2.438 0.767-3.743 0.751-0.389-0.005-0.779 0.114-1.168 0.115s-0.779-0.124-1.165-0.107c-1.682 0.071-3.241-0.441-4.789-0.979-1.689-0.587-3.18-1.513-4.583-2.618-1.979-1.558-3.391-3.52-4.428-5.765-0.559-1.21-1.014-2.46-1.142-3.803-0.021-0.223-0.096-0.443-0.162-0.66-0.471-1.507-0.2-2.985 0.091-4.486 0.223-1.148 0.452-2.283 0.886-3.373 1.146-2.884 2.967-5.245 5.488-7.1 2.102-1.545 4.454-2.494 7.013-2.902 2.935-0.468 5.8-0.131 8.58 0.963 1.387 0.548 2.696 1.241 3.839 2.16 1.066 0.856 2.028 1.858 2.936 2.882 0.824 0.928 1.408 2.034 1.93 3.162 0.815 1.762 1.347 3.586 1.293 5.546-0.012 0.362-0.003 0.721-0.004 1.080zM41.739 12.427c-0.081-0.616-0.132-1.329-0.284-2.021-0.433-1.993-1.599-3.547-3.152-4.818-0.882-0.722-1.843-1.349-2.791-1.988-0.321-0.216-0.694-0.415-1.068-0.481-0.963-0.176-1.937-0.34-2.914-0.389-1.695-0.086-3.217-0.519-4.496-1.685-0.942-0.858-1.967-0.941-2.946-0.186-1.11 0.855-2.373 1.358-3.659 1.855-0.943 0.364-1.851 0.823-2.758 1.276-0.758 0.379-1.199 0.971-1.189 1.867 0.006 0.503-0.226 0.923-0.697 1.201-0.432 0.259-0.8 0.514-1.15 0.79l0.023-0.017c-1.003 0.782-1.785 1.661-1.953 3.027-0.133 1.080-0.464 2.149-1.211 3.038-0.241 0.292-0.402 0.658-0.446 1.060l-0.001 0.009c-0.069 0.807-0.040 1.625-0.020 2.437 0.005 0.218 0.101 0.451 0.213 0.642 0.258 0.452 0.539 0.891 0.842 1.315 0.734 1.010 1.373 2.046 1.52 3.329 0.143 1.243 0.75 2.257 1.776 3.030 1.487 1.12 2.921 2.31 4.43 3.402 0.811 0.588 1.68 1.103 2.75 1.221s2.119 0.408 3.078 0.941c0.201 0.107 0.422 0.174 0.649 0.197 1.353 0.145 2.606-0.187 3.795-0.814 0.373-0.197 0.757-0.375 1.142-0.546 0.929-0.411 1.958-0.682 2.768-1.255 0.901-0.639 1.863-0.922 2.896-1.101 0.446-0.078 0.811-0.26 1.102-0.588 0.346-0.39 0.667-0.802 1.029-1.179 0.374-0.389 0.644-0.802 0.709-1.356 0.101-0.849 0.468-1.599 0.933-2.32 0.789-1.217 1.237-2.562 1.47-3.992 0.061-0.375 0.096-0.693-0.091-1.023-0.543-0.953-0.322-2.034-0.493-3.049-0.087-0.549 0.113-1.148 0.197-1.831l-0.002 0.001zM35.206 2.909c-0.229-0.251-0.302-0.364-0.406-0.434-0.187-0.128-0.392-0.233-0.591-0.344-1.703-0.95-3.569-1.412-5.476-1.743-0.383-0.068-0.785-0.037-1.176-0.022-0.102 0.004-0.223 0.101-0.288 0.19-0.030 0.040 0.037 0.181 0.093 0.248 0.419 0.491 0.959 0.868 1.575 1.084l0.026 0.008c0.994 0.366 2.141 0.591 3.337 0.623l0.014 0c0.485 0.013 0.967 0.104 1.45 0.169 0.411 0.058 0.822 0.127 1.441 0.223zM20.733 30.284c-1.143-0.925-2.146-1.752-3.166-2.556-0.844-0.666-1.707-1.309-2.57-1.952-0.097-0.072-0.25-0.070-0.462-0.124 1.040 1.728 4.513 4.353 6.198 4.632zM13.029 8.699c0.69-0.521 1.328-1.070 2.028-1.525 0.982-0.633 1.358-1.421 1.126-2.773-0.697 0.564-1.194 1.243-1.731 1.861-0.568 0.651-0.989 1.426-1.462 2.155-0.037 0.059 0.023 0.175 0.040 0.281zM36.285 28.421c-0.643-0.043-1.291 0.069-1.695 0.412-0.766 0.652-1.677 0.98-2.604 1.306-0.486 0.171-0.945 0.422-1.403 0.662-0.064 0.033-0.075 0.209-0.062 0.313 0.005 0.035 0.176 0.092 0.247 0.069 0.832-0.281 1.691-0.507 2.48-0.882 0.966-0.459 1.874-1.040 2.799-1.579 0.097-0.054 0.148-0.181 0.239-0.299zM11.709 19.381c-0.185 0.539-0.149 0.838-0.032 1.157 0.322 0.882 0.518 1.814 1.099 2.585 0.216 0.286 0.26 0.926 0.657 0.788 0.35-0.12-0.059-0.626-0.084-0.968-0.091-1.304-0.784-2.355-1.641-3.561zM17.949 3.142l0.086 0.129c0.48-0.176 0.966-0.343 1.441-0.532 2.525-0.954 3.546-1.377 4.562-1.807l-1.47 0.552c0.207-0.087 0.397-0.225 0.574-0.366 0.049-0.040 0.041-0.175 0.025-0.259-0.008-0.037-0.106-0.078-0.162-0.080-0.102 0.002-0.199 0.019-0.291 0.049l0.007-0.002c-1.397 0.393-2.715 0.974-3.975 1.68-0.295 0.165-0.534 0.422-0.798 0.636zM42.482 17.147c0.085-0.097 0.151-0.138 0.155-0.183 0.136-1.421-0.016-2.829-0.213-4.233-0.010-0.071-0.108-0.172-0.176-0.181-0.074-0.009-0.19 0.052-0.235 0.117-0.071 0.099-0.119 0.219-0.133 0.349l-0 0.003c-0.017 0.255-0.027 0.553-0.027 0.853 0 0.922 0.093 1.823 0.271 2.693l-0.015-0.086c0.044 0.23 0.237 0.432 0.373 0.668zM11.372 13.226c0.545-0.206 0.626-0.578 0.685-0.914 0.142-0.821 0.498-1.61 0.381-2.477-0.57 1.035-1.075 2.084-1.066 3.392h-0zM24.565 31.234c-1.221-0.535-1.553-0.592-2.641-0.441 0.461 0.173 0.876 0.448 1.294 0.452 0.435 0.006 0.907 0.534 1.348-0.011h-0z"></path>
<path d="M27.086 20.593c-0.836-0.015-1.41-0.361-1.835-1.030-0.396-0.624-1.054-0.947-1.658-1.332-0.76-0.484-1.379-1.030-1.554-2.012-0.122-0.666 0.020-1.243 0.293-1.769 0.229-0.439 0.638-0.847 1.067-1.108 0.466-0.283 0.852-0.55 1.067-1.074 0.243-0.602 0.857-0.638 1.4-0.746 0.511-0.101 1.031-0.167 1.536-0.294 0.689-0.174 1.315-0.121 1.819 0.411 0.389 0.412 0.844 0.708 1.351 0.958 0.527 0.26 0.701 0.564 0.536 1.107-0.112 0.369-0.004 0.62 0.135 0.914 0.152 0.321 0.308 0.647 0.412 0.986 0.347 1.128-0.053 2.077-1.122 2.58-0.663 0.311-1.17 0.726-1.335 1.456-0.066 0.294-0.251 0.461-0.514 0.537-0.529 0.153-1.065 0.28-1.599 0.417zM30.593 15.864c0.017-1.987-1.505-3.576-3.484-3.579-1.776 0-3.562 1.19-3.632 3.469-0.055 1.824 1.48 3.524 3.481 3.53 2.437 0.012 3.587-1.663 3.634-3.42zM23.459 17.765c0-0.255 0.025-0.385-0.004-0.503-0.263-1.079-0.433-2.149 0.162-3.188 0.043-0.075-0.056-0.229-0.090-0.346-0.117 0.037-0.258 0.045-0.346 0.117-0.984 0.799-1.423 2.718 0.277 3.92zM27.111 11.788c0.411 0.149 0.647 0.255 0.892 0.321 0.907 0.238 1.68 0.664 2.218 1.451 0.106 0.155 0.243 0.385 0.446 0.209 0.108-0.095 0.143-0.383 0.081-0.527-0.084-0.191-0.274-0.43-0.458-0.468-0.498-0.103-0.771-0.46-1.095-0.771-0.546-0.519-1.156-0.682-2.085-0.215zM27.056 19.61l-0.012-0.075c-0.261 0-0.525-0.022-0.782 0.009-0.133 0.016-0.252 0.128-0.378 0.196 0.114 0.1 0.213 0.257 0.345 0.289 0.702 0.176 1.411 0.213 2.103-0.055 0.119-0.047 0.25-0.107 0.325-0.201 0.066-0.080 0.087-0.222 0.074-0.33-0.005-0.040-0.169-0.101-0.25-0.088-0.475 0.074-0.95 0.167-1.423 0.254l-0.002 0.001zM30.649 17.572c0.486-0.090 0.704-0.361 0.732-0.779 0.021-0.352 0.016-0.705-0.016-1.056-0.008-0.093-0.139-0.176-0.213-0.263-0.108 0.101-0.328 0.238-0.308 0.299 0.198 0.609-0.216 1.155-0.197 1.798v0.001zM35.101 20.323c-0.028 0.014-0.141 0.107-0.263 0.12-0.111 0.013-0.273-0.024-0.342-0.101-0.328-0.361-0.653-0.752-0.96-1.156l-0.031-0.043c-0.081-0.109-0.114-0.401-0.068-0.427 0.152-0.083 0.449-0.17 0.516-0.098 0.391 0.427 0.736 0.897 1.089 1.358 0.035 0.046 0.024 0.125 0.059 0.346zM18.53 23.669c0.181 0.014 0.538 0.025 0.887 0.084 0.087 0.015 0.203 0.183 0.203 0.283s-0.101 0.273-0.187 0.294c-0.677 0.167-1.351 0.208-1.951-0.24-0.060-0.055-0.097-0.133-0.097-0.221 0-0.009 0-0.018 0.001-0.027l-0 0.001c0.013-0.067 0.118-0.16 0.189-0.165 0.26-0.022 0.521-0.010 0.955-0.010zM39.757 9.562l0.256 0.139c-0.072 0.129-0.117 0.336-0.223 0.373-0.411 0.156-0.913 0.302-1.428 0.411l-0.069 0.012c-0.146 0.028-0.359-0.114-0.494-0.231-0.155-0.136-0.063-0.432 0.133-0.461 0.577-0.088 1.158-0.155 1.824-0.242zM22.514 26.54c0.272 0.125 0.498 0.16 0.609 0.294 0.283 0.344 0.556 0.727 0.804 1.128l0.026 0.045c0.122 0.195 0.011 0.406-0.194 0.462-0.112 0.031-0.316-0.059-0.399-0.16-0.308-0.365-0.61-0.769-0.888-1.19l-0.030-0.048c-0.065-0.102 0.036-0.308 0.072-0.532zM33.146 11.018c0.017-0.114 0-0.245 0.054-0.294 0.073-0.066 0.23-0.121 0.304-0.085 0.103 0.049 0.169 0.182 0.24 0.287 0.197 0.291 0.39 0.584 0.577 0.882 0.084 0.134 0.196 0.276 0.203 0.421 0.008 0.133-0.074 0.306-0.175 0.397-0.057 0.051-0.289 0.018-0.346-0.053-0.375-0.471-0.824-0.912-0.858-1.554zM34.312 6.010c-0.081 0.481-0.113 0.836-0.208 1.175-0.059 0.183-0.172 0.345-0.325 0.465-0.107 0.086-0.295 0.073-0.446 0.105-0.012-0.14-0.056-0.286-0.031-0.419 0.079-0.41 0.185-0.815 0.28-1.222 0.007-0.032 0.005-0.065 0.015-0.096 0.075-0.245 0.236-0.432 0.494-0.331 0.13 0.051 0.191 0.276 0.221 0.323zM27.318 9.141c0.228 0.028 0.523 0.043 0.805 0.111 0.096 0.023 0.238 0.194 0.221 0.268-0.029 0.133-0.14 0.306-0.258 0.345-0.087 0.028-0.186 0.044-0.29 0.044-0.1 0-0.197-0.015-0.288-0.043l0.007 0.002c-0.325-0.102-0.626-0.136-0.95-0.002-0.213 0.088-0.412-0.005-0.469-0.214-0.076-0.281 0.137-0.417 0.377-0.456 0.256-0.043 0.519-0.036 0.845-0.054zM32.378 22.97c-0.092 0.398-0.162 0.748-0.262 1.089-0.019 0.067-0.162 0.157-0.222 0.142-0.108-0.026-0.26-0.11-0.282-0.198-0.026-0.097-0.041-0.209-0.041-0.324 0-0.090 0.009-0.177 0.026-0.262l-0.001 0.008c0.076-0.35 0.151-0.682 0.008-1.040-0.069-0.171-0.049-0.444 0.214-0.443 0.142 0 0.345 0.173 0.409 0.316 0.104 0.229 0.111 0.498 0.151 0.71zM28.386 22.868c-0.053 0.094-0.078 0.204-0.148 0.251-0.427 0.291-0.855 0.583-1.304 0.838-0.115 0.065-0.316 0.025-0.463-0.018-0.215-0.063-0.259-0.342-0.081-0.455 0.342-0.228 0.829-0.528 1.324-0.817l0.168-0.091c0.081-0.046 0.243 0.003 0.348 0.055 0.071 0.035 0.102 0.149 0.155 0.237zM22.944 4.155c0.070 0.040 0.2 0.075 0.218 0.138 0.169 0.618 0.333 1.239 0.468 1.864 0.038 0.174-0.195 0.27-0.351 0.166-0.491-0.326-0.796-1.536-0.51-2.042 0.030-0.050 0.102-0.075 0.176-0.128zM29.004 5.911c-0.148-0.097-0.307-0.147-0.329-0.231-0.023-0.091 0.053-0.247 0.136-0.321 0.36-0.318 0.736-0.617 1.127-0.897 0.132-0.091 0.406-0.157 0.507-0.085 0.239 0.166 0.113 0.401-0.053 0.573-0.224 0.231-0.446 0.475-0.704 0.662-0.198 0.141-0.452 0.201-0.685 0.299zM19.68 9.177l-0.358 0.335c-0.102-0.11-0.254-0.2-0.297-0.331-0.123-0.344-0.278-0.863-0.416-1.39l-0.037-0.165c-0.019-0.072 0.041-0.219 0.102-0.244 0.099-0.040 0.263-0.056 0.338 0 0.149 0.109 0.319 0.254 0.367 0.417 0.128 0.425 0.195 0.87 0.301 1.377zM15.755 17.757c-0.329 0.597-0.579 1.207-1.191 1.533-0.103 0.055-0.331-0.015-0.441-0.102-0.187-0.147 0-0.27 0.091-0.395 0.287-0.391 0.553-0.8 0.858-1.177 0.079-0.096 0.279-0.144 0.414-0.131 0.093 0.008 0.168 0.164 0.268 0.272zM19.47 17.808c0.171 0.098 0.296 0.128 0.319 0.192 0.038 0.106 0.058 0.272 0 0.346-0.094 0.117-0.255 0.184-0.394 0.263-0.36 0.204-0.715 0.42-1.089 0.594-0.114 0.053-0.32 0.037-0.421-0.035-0.209-0.147-0.136-0.383 0.032-0.487 0.514-0.318 1.054-0.597 1.553-0.873zM38.066 15.106c-0.132 0.295-0.318 0.74-0.538 1.167-0.034 0.066-0.247 0.102-0.338 0.063-0.084-0.037-0.176-0.204-0.159-0.295 0.089-0.475 0.186-0.953 0.335-1.412 0.046-0.14 0.251-0.267 0.408-0.314 0.059-0.017 0.212 0.201 0.284 0.334 0.042 0.075 0.007 0.191 0.007 0.457zM15.651 11.562c0.582 0.517 0.513 1.218 0.577 1.867 0.012 0.12-0.139 0.293-0.26 0.379-0.063 0.046-0.32-0.027-0.326-0.070-0.073-0.474-0.15-1.151-0.209-1.833l-0.010-0.138c-0.005-0.056 0.133-0.125 0.228-0.205zM29.253 27.56c0.098 0.026 0.194 0.057 0.288 0.093 0.349 0.16 0.701 0.316 1.042 0.493 0.162 0.083 0.325 0.187 0.441 0.321 0.134 0.154-0.019 0.451-0.207 0.41-0.634-0.136-1.254-0.325-1.728-0.794-0.070-0.069-0.069-0.243-0.046-0.358 0.013-0.065 0.136-0.11 0.21-0.165zM21.533 11.751c0.033 0.104 0.149 0.265 0.108 0.366-0.213 0.536-0.46 1.059-0.711 1.579-0.031 0.064-0.162 0.12-0.24 0.11-0.069-0.008-0.162-0.103-0.18-0.175-0.133-0.579 0.287-1.615 0.754-1.876 0.048-0.027 0.125-0.004 0.268-0.004zM39.672 20.539c-0.073-0.046-0.225-0.102-0.304-0.21-0.032-0.043 0.070-0.239 0.159-0.301 0.339-0.251 0.732-0.512 1.137-0.753l0.066-0.036c0.112-0.064 0.345-0.069 0.427 0.004 0.076 0.067 0.087 0.32 0.019 0.414-0.348 0.48-0.787 0.846-1.504 0.882zM37.262 24.67c-0.301-0.031-0.432-0.034-0.557-0.062-0.053-0.012-0.133-0.074-0.133-0.114-0.001-0.008-0.001-0.017-0.001-0.026 0-0.087 0.026-0.167 0.070-0.234l-0.001 0.002c0.064-0.073 0.149-0.125 0.243-0.151 0.464-0.138 0.928-0.276 1.399-0.388 0.102-0.024 0.318 0.043 0.331 0.101 0.031 0.137-0.006 0.303-0.060 0.441-0.029 0.073-0.144 0.134-0.231 0.16-0.403 0.11-0.808 0.208-1.060 0.272zM23.29 21.355c-0.033 0.14-0.087 0.45-0.192 0.743-0.026 0.072-0.229 0.142-0.322 0.116s-0.203-0.178-0.2-0.273c0.010-0.541 0.037-1.083 0.092-1.622 0.012-0.117 0.162-0.221 0.249-0.331 0.104 0.109 0.272 0.205 0.299 0.329 0.058 0.279 0.046 0.573 0.073 1.039zM45.035 4.422c0-1.147 0.28-2.016 0.841-2.608 0.567-0.599 1.293-0.898 2.178-0.898s1.589 0.258 2.111 0.775c0.529 0.517 0.793 1.342 0.793 2.475s-0.28 1.99-0.841 2.57c-0.56 0.579-1.309 0.869-2.245 0.869-0.809 0-1.471-0.229-1.987-0.689-0.267-0.239-0.478-0.57-0.63-0.992-0.146-0.428-0.219-0.929-0.219-1.502zM48.025 1.012c-0.643 0-1.172 0.283-1.586 0.85-0.407 0.567-0.611 1.398-0.611 2.494s0.194 1.896 0.583 2.4c0.388 0.504 0.904 0.756 1.547 0.756 0.65 0 1.178-0.283 1.586-0.85 0.414-0.573 0.621-1.401 0.621-2.485 0-1.090-0.197-1.89-0.592-2.4-0.389-0.51-0.905-0.765-1.548-0.765zM52.61 7.568h-0.793v-6.613h0.793v3.042h3.105v-3.043h0.793v6.614h-0.793v-3.477h-3.105v3.477zM60.584 7.568h-0.124l0.831-6.614h0.315l2.006 6.113 1.997-6.113h0.315l0.831 6.614h-0.793l-0.659-5.29-1.729 5.29h-0.602l-1.748-5.225-0.64 5.225zM72.047 0.955c0.121 0.119 0.181 0.273 0.181 0.463 0 0.157-0.035 0.318-0.105 0.482l-1.71 3.429v2.239h-0.793v-2.031l-1.911-4.582h0.812l1.824 4.261 1.662-3.316c0.070-0.158 0.105-0.321 0.105-0.491s-0.048-0.302-0.143-0.397l0.076-0.057zM1.347 9.306c0.431-0.021 0.938-0.033 1.447-0.033h0.001c0.483 0 0.987 0.050 1.515 0.149 0.539 0.1 1.066 0.289 1.583 0.566 0.525 0.264 0.967 0.616 1.325 1.042l0.005 0.006c0.37 0.422 0.667 0.982 0.892 1.681s0.337 1.549 0.337 2.548-0.169 1.898-0.505 2.697c-0.325 0.788-0.774 1.393-1.347 1.815-1.111 0.821-2.453 1.232-4.024 1.232-0.613-0.001-1.217-0.025-1.815-0.072l0.081 0.005h-0.842v-11.637h1.347zM1.397 20.811c0.236 0.023 0.534 0.033 0.892 0.033s0.629-0.006 0.808-0.016 0.426-0.056 0.741-0.133c0.335-0.094 0.625-0.214 0.899-0.361l-0.023 0.011c0.27-0.144 0.55-0.355 0.842-0.633 0.303-0.291 0.56-0.625 0.764-0.994l0.011-0.021c0.482-0.91 0.724-2.098 0.724-3.563 0-1.043-0.129-1.942-0.387-2.697-0.258-0.766-0.555-1.332-0.892-1.698-0.327-0.364-0.725-0.657-1.173-0.857l-0.022-0.009c-0.471-0.222-0.848-0.35-1.128-0.383-0.276-0.032-0.595-0.050-0.919-0.050-0.020 0-0.041 0-0.061 0l0.003-0c-0.37 0-0.729 0.017-1.077 0.050v11.321zM45.308 20.944h-0.219v-11.655h0.572l7.003 10.772v-10.772h0.219v11.654h-1.229l-6.347-9.657v9.657zM63.25 9.29h0.219v6.66c0 1.743-0.348 3.024-1.044 3.846-0.696 0.81-1.605 1.216-2.727 1.216-0.707 0-1.307-0.061-1.801-0.183-0.494-0.133-0.96-0.372-1.398-0.716-0.898-0.688-1.347-2.075-1.347-4.162v-6.66h1.398v6.643c0 2.021 0.309 3.369 0.926 4.046 0.314 0.333 0.64 0.561 0.976 0.683 0.348 0.122 0.763 0.183 1.246 0.183 1.078 0 1.936-0.389 2.576-1.165 0.651-0.788 0.976-2.037 0.976-3.746v-6.644zM69.212 20.944h-1.397v-11.488h-2.912v-0.166h7.239v0.166h-2.929v11.488z"></path>
</symbol>
<symbol id="menu" viewBox="0 0 60 32">
<path d="M2 0h56c1.105 0 2 0.895 2 2s-0.895 2-2 2h-56c-1.105 0-2-0.895-2-2s0.895-2 2-2z"></path>
<path d="M2 14h56c1.105 0 2 0.895 2 2s-0.895 2-2 2h-56c-1.105 0-2-0.895-2-2s0.895-2 2-2z"></path>
<path d="M2 28h56c1.105 0 2 0.895 2 2s-0.895 2-2 2h-56c-1.105 0-2-0.895-2-2s0.895-2 2-2z"></path>
</symbol>
<symbol id="rate4" viewBox="0 0 173 32">
<path fill="#edd501" style="fill: var(--color5, #edd501)" d="M14.249 4.681c0.384-1.18 2.052-1.18 2.435 0l1.908 5.871c0.172 0.517 0.652 0.883 1.217 0.883 0 0 0 0 0 0h6.173c1.242 0 1.756 1.587 0.753 2.317l-4.995 3.629c-0.321 0.235-0.527 0.611-0.527 1.035 0 0.141 0.023 0.278 0.065 0.405l-0.003-0.009 1.907 5.873c0.384 1.178-0.966 2.159-1.97 1.431l-4.995-3.63c-0.208-0.153-0.469-0.244-0.752-0.244s-0.544 0.092-0.756 0.247l0.004-0.003-4.996 3.63c-1.002 0.728-2.353-0.252-1.97-1.431l1.908-5.873c0.040-0.118 0.063-0.254 0.063-0.396 0-0.424-0.206-0.8-0.524-1.033l-0.004-0.003-4.996-3.629c-1.002-0.73-0.486-2.317 0.753-2.317h6.175c0.565-0 1.044-0.366 1.213-0.874l0.003-0.009 1.908-5.871z"></path>
<path fill="none" stroke="#edd501" style="stroke: var(--color5, #edd501)" stroke-linejoin="miter" stroke-linecap="butt" stroke-miterlimit="4" stroke-width="1.28" d="M156.724 4.878c0.086-0.259 0.326-0.442 0.609-0.442s0.523 0.183 0.607 0.438l0.001 0.005 1.908 5.871c0.258 0.777 0.977 1.327 1.825 1.327h6.175c0.353 0 0.639 0.287 0.639 0.64 0 0.212-0.103 0.399-0.261 0.516l-0.002 0.001-4.996 3.63c-0.481 0.353-0.791 0.917-0.791 1.553 0 0.212 0.034 0.417 0.098 0.608l-0.004-0.014 1.907 5.871c0.020 0.059 0.031 0.127 0.031 0.197 0 0.353-0.287 0.64-0.64 0.64-0.141 0-0.272-0.046-0.377-0.123l0.002 0.001-4.996-3.629c-0.312-0.229-0.704-0.367-1.128-0.367s-0.816 0.137-1.134 0.37l0.005-0.004-4.995 3.629c-0.104 0.077-0.235 0.123-0.377 0.123-0.353 0-0.64-0.287-0.64-0.64 0-0.071 0.012-0.139 0.033-0.203l-0.001 0.005 1.908-5.871c0.060-0.177 0.094-0.381 0.094-0.593 0-0.636-0.31-1.2-0.786-1.55l-0.005-0.004-4.995-3.63c-0.16-0.118-0.263-0.305-0.263-0.517 0-0.353 0.286-0.64 0.639-0.64h6.173c0 0 0 0 0 0 0.849 0 1.569-0.55 1.822-1.314l0.004-0.014 1.907-5.871z"></path>
<path fill="#edd501" style="fill: var(--color5, #edd501)" d="M120.649 4.681c0.384-1.18 2.052-1.18 2.435 0l1.908 5.871c0.172 0.517 0.652 0.883 1.217 0.883 0 0 0 0 0 0h6.173c1.24 0 1.756 1.587 0.753 2.317l-4.995 3.629c-0.321 0.235-0.527 0.611-0.527 1.035 0 0.141 0.023 0.278 0.065 0.405l-0.003-0.009 1.907 5.873c0.384 1.178-0.966 2.159-1.97 1.431l-4.995-3.63c-0.208-0.153-0.469-0.244-0.752-0.244s-0.544 0.092-0.756 0.247l0.004-0.003-4.996 3.63c-1.002 0.728-2.353-0.252-1.969-1.431l1.907-5.873c0.040-0.118 0.063-0.254 0.063-0.396 0-0.424-0.206-0.8-0.524-1.033l-0.004-0.003-4.996-3.629c-1.002-0.73-0.486-2.317 0.753-2.317h6.175c0.565-0 1.044-0.366 1.213-0.874l0.003-0.009 1.908-5.871zM85.183 4.681c0.384-1.18 2.052-1.18 2.435 0l1.907 5.871c0.172 0.517 0.652 0.883 1.217 0.883 0.001 0 0.001 0 0.002 0h6.173c1.24 0 1.756 1.587 0.753 2.317l-4.995 3.629c-0.322 0.235-0.528 0.612-0.528 1.036 0 0.141 0.023 0.277 0.065 0.404l-0.003-0.009 1.907 5.873c0.384 1.178-0.965 2.159-1.969 1.431l-4.995-3.63c-0.208-0.153-0.47-0.245-0.753-0.245s-0.544 0.092-0.756 0.247l0.004-0.003-4.995 3.63c-1.004 0.728-2.353-0.252-1.97-1.431l1.907-5.873c0.040-0.118 0.063-0.254 0.063-0.396 0-0.424-0.206-0.8-0.524-1.033l-0.004-0.003-4.995-3.629c-1.004-0.73-0.486-2.317 0.753-2.317h6.173c0 0 0 0 0 0 0.565 0 1.045-0.366 1.214-0.874l0.003-0.009 1.907-5.871zM49.715 4.681c0.384-1.18 2.052-1.18 2.436 0l1.907 5.871c0.172 0.517 0.652 0.883 1.217 0.883 0 0 0 0 0 0h6.175c1.24 0 1.755 1.587 0.753 2.317l-4.996 3.629c-0.321 0.235-0.527 0.611-0.527 1.035 0 0.141 0.023 0.278 0.065 0.405l-0.003-0.009 1.907 5.873c0.384 1.178-0.966 2.159-1.969 1.431l-4.995-3.63c-0.208-0.153-0.47-0.245-0.753-0.245s-0.544 0.092-0.756 0.247l0.004-0.003-4.995 3.63c-1.004 0.728-2.353-0.252-1.971-1.431l1.908-5.873c0.040-0.118 0.063-0.254 0.063-0.396 0-0.424-0.206-0.8-0.524-1.033l-0.004-0.003-4.995-3.629c-1.004-0.73-0.488-2.317 0.753-2.317h6.173c0 0 0 0 0 0 0.565 0 1.045-0.366 1.214-0.874l0.003-0.009 1.907-5.871z"></path>
</symbol>
<symbol id="rate5" viewBox="0 0 181 32">
<path fill="#edd501" style="fill: var(--color5, #edd501)" d="M14.732 3.903c0.4-1.228 2.137-1.228 2.536 0l2.025 6.232c0.179 0.538 0.678 0.92 1.267 0.92h6.553c1.292 0 1.828 1.653 0.784 2.413l-5.301 3.851c-0.335 0.245-0.549 0.637-0.549 1.078 0 0.147 0.024 0.289 0.068 0.422l-0.003-0.009 2.024 6.232c0.4 1.229-1.007 2.251-2.051 1.491l-5.301-3.851c-0.217-0.159-0.489-0.255-0.784-0.255s-0.567 0.096-0.788 0.257l0.004-0.003-5.301 3.851c-1.044 0.76-2.451-0.263-2.051-1.491l2.024-6.232c0.041-0.123 0.065-0.265 0.065-0.412 0-0.442-0.215-0.833-0.546-1.076l-0.004-0.003-5.301-3.851c-1.044-0.76-0.507-2.413 0.784-2.413h6.552c0 0 0 0 0 0 0.589 0 1.088-0.381 1.265-0.911l0.003-0.009 2.025-6.232zM164.065 3.903c0.399-1.228 2.137-1.228 2.536 0l2.025 6.232c0.179 0.539 0.679 0.92 1.268 0.92 0 0 0 0 0 0h6.552c1.292 0 1.828 1.653 0.784 2.413l-5.301 3.851c-0.335 0.245-0.549 0.637-0.549 1.078 0 0.147 0.024 0.289 0.068 0.422l-0.003-0.009 2.024 6.232c0.4 1.229-1.007 2.251-2.051 1.491l-5.301-3.851c-0.217-0.159-0.489-0.255-0.784-0.255s-0.567 0.096-0.788 0.257l0.004-0.003-5.301 3.851c-1.044 0.76-2.451-0.263-2.051-1.491l2.024-6.232c0.041-0.123 0.065-0.265 0.065-0.412 0-0.442-0.215-0.833-0.546-1.076l-0.004-0.003-5.301-3.851c-1.044-0.76-0.508-2.413 0.784-2.413h6.552c0 0 0 0 0 0 0.589 0 1.088-0.381 1.265-0.911l0.003-0.009 2.025-6.232zM126.732 3.903c0.4-1.228 2.137-1.228 2.536 0l2.025 6.232c0.179 0.538 0.678 0.92 1.267 0.92h6.553c1.292 0 1.828 1.653 0.784 2.413l-5.301 3.851c-0.335 0.245-0.549 0.637-0.549 1.078 0 0.147 0.024 0.289 0.068 0.422l-0.003-0.009 2.024 6.232c0.4 1.229-1.007 2.251-2.051 1.491l-5.301-3.851c-0.217-0.159-0.489-0.255-0.784-0.255s-0.567 0.096-0.788 0.257l0.004-0.003-5.301 3.851c-1.044 0.76-2.451-0.263-2.051-1.491l2.024-6.232c0.041-0.123 0.065-0.265 0.065-0.412 0-0.442-0.215-0.833-0.546-1.076l-0.004-0.003-5.301-3.851c-1.045-0.76-0.507-2.413 0.784-2.413h6.552c0 0 0 0 0 0 0.589 0 1.088-0.381 1.265-0.911l0.003-0.009 2.025-6.232zM89.399 3.903c0.4-1.228 2.137-1.228 2.536 0l2.025 6.232c0.179 0.538 0.678 0.92 1.267 0.92h6.553c1.292 0 1.829 1.653 0.784 2.413l-5.301 3.851c-0.335 0.245-0.549 0.637-0.549 1.078 0 0.147 0.024 0.289 0.068 0.422l-0.003-0.009 2.024 6.232c0.4 1.229-1.007 2.251-2.051 1.491l-5.301-3.851c-0.217-0.159-0.489-0.255-0.784-0.255s-0.567 0.096-0.788 0.257l0.004-0.003-5.301 3.851c-1.044 0.76-2.451-0.263-2.051-1.491l2.024-6.232c0.041-0.123 0.065-0.265 0.065-0.412 0-0.442-0.215-0.833-0.546-1.076l-0.004-0.003-5.301-3.851c-1.044-0.76-0.507-2.413 0.784-2.413h6.552c0 0 0 0 0 0 0.589 0 1.088-0.381 1.265-0.911l0.003-0.009 2.025-6.232zM52.065 3.903c0.4-1.228 2.137-1.228 2.536 0l2.025 6.232c0.179 0.538 0.678 0.92 1.267 0.92h6.553c1.292 0 1.828 1.653 0.784 2.413l-5.301 3.851c-0.335 0.245-0.549 0.637-0.549 1.078 0 0.147 0.024 0.289 0.068 0.422l-0.003-0.009 2.024 6.232c0.4 1.229-1.007 2.251-2.051 1.491l-5.301-3.851c-0.217-0.159-0.489-0.255-0.784-0.255s-0.567 0.096-0.788 0.257l0.004-0.003-5.3 3.851c-1.045 0.76-2.452-0.263-2.053-1.491l2.027-6.232c0.041-0.123 0.065-0.264 0.065-0.411 0-0.442-0.215-0.834-0.547-1.077l-0.004-0.003-5.301-3.851c-1.045-0.76-0.507-2.413 0.784-2.413h6.552c0 0 0 0 0 0 0.589 0 1.088-0.381 1.265-0.911l0.003-0.009 2.025-6.232z"></path>
</symbol>
<symbol id="twitter" viewBox="0 0 32 32">
<path d="M32 5.44c-1.097 0.551-2.37 0.957-3.712 1.152l-0.068 0.008c1.36-0.908 2.398-2.336 2.886-4.054-1.19 0.803-2.582 1.417-4.077 1.758l-0.083 0.016c-1.204-1.432-2.92-2.32-4.792-2.32-3.632 0-6.556 3.296-6.556 7.336 0 0.58 0.044 1.14 0.152 1.672-5.454-0.298-10.28-3.22-13.522-7.672-0.566 1.074-0.898 2.347-0.898 3.697 0 0.004 0 0.008 0 0.011v-0.001c0 2.54 1.17 4.79 2.914 6.094-1.103-0.038-2.121-0.369-2.988-0.918l0.024 0.014v0.080c0 3.566 2.274 6.526 5.256 7.208-0.534 0.162-1.116 0.24-1.72 0.24-0.42 0-0.844-0.026-1.242-0.124 0.85 2.904 3.262 5.040 6.13 5.108-2.232 1.952-5.066 3.128-8.134 3.128-0.538 0-1.054-0.028-1.57-0.1 2.906 2.094 6.35 3.29 10.064 3.29 12.072 0 18.672-11.18 18.672-20.868 0-0.324-0.010-0.638-0.024-0.948 1.308-1.060 2.402-2.32 3.253-3.744l0.035-0.064z"></path>
</symbol>
</defs>
</svg>
